<svg xmlns="http://www.w3.org/2000/svg" width="2054" height="1207" viewBox="0 0 2054 1207"><g><g><g opacity=".07"><path fill="none" stroke="#d6e1dd" stroke-miterlimit="20" stroke-width="3.79" d="M1574.5 249.908c263.766 0 477.592 213.825 477.592 477.592s-213.826 477.593-477.593 477.593c-263.767 0-477.592-213.826-477.592-477.593 0-263.767 213.825-477.592 477.592-477.592z"/></g><g opacity=".07"><path fill="none" stroke="#d6e1dd" stroke-miterlimit="20" stroke-width="3.79" d="M1574.5 334.682c235.172 0 425.818 190.645 425.818 425.818 0 235.174-190.646 425.819-425.819 425.819-235.173 0-425.818-190.645-425.818-425.819 0-235.173 190.645-425.818 425.818-425.818z"/></g><g opacity=".08"><path fill="none" stroke="#d6e1dd" stroke-miterlimit="20" stroke-width="3.79" d="M331.5 2.315c181.803 0 329.185 147.381 329.185 329.185S513.303 660.686 331.499 660.686C149.695 660.686 2.314 513.304 2.314 331.5 2.314 149.696 149.695 2.315 331.5 2.315z"/></g><g opacity=".12"><path fill="none" stroke="#d6e1dd" stroke-miterlimit="20" stroke-width="3.79" d="M331.5 38C493.595 38 625 169.406 625 331.5 625 493.596 493.594 625 331.5 625 169.404 625 38 493.596 38 331.5 38 169.405 169.404 38 331.5 38z"/></g></g></g></svg>