<svg xmlns="http://www.w3.org/2000/svg" width="322" height="122" viewBox="0 0 322 122"><defs><mask id="14lcb" width="2.02" height="2.05" x="-1.01" y="-1.03"><path fill="#fff" d="M18.9 17.9h284.2v84.2H18.9z"/><path d="M36 20h250c8.284 0 15 6.716 15 15v50c0 8.284-6.716 15-15 15H36c-8.284 0-15-6.716-15-15V35c0-8.284 6.716-15 15-15z"/></mask><filter id="14lca" width="342" height="143" x="-10" y="-11" filterUnits="userSpaceOnUse"><feOffset dy="1" in="SourceGraphic" result="FeOffset1025Out"/><feGaussianBlur in="FeOffset1025Out" result="FeGaussianBlur1026Out" stdDeviation="7.56 7.56"/></filter></defs><g><g><g><g filter="url(#14lca)"><path fill="none" stroke="#000" stroke-opacity=".08" stroke-width="4.2" d="M36 20h250c8.284 0 15 6.716 15 15v50c0 8.284-6.716 15-15 15H36c-8.284 0-15-6.716-15-15V35c0-8.284 6.716-15 15-15z" mask="url(&quot;#14lcb&quot;)"/><path fill-opacity=".08" d="M36 20h250c8.284 0 15 6.716 15 15v50c0 8.284-6.716 15-15 15H36c-8.284 0-15-6.716-15-15V35c0-8.284 6.716-15 15-15z"/></g><path fill="#fff" d="M36 20h250c8.284 0 15 6.716 15 15v50c0 8.284-6.716 15-15 15H36c-8.284 0-15-6.716-15-15V35c0-8.284 6.716-15 15-15z"/></g><g><g><text dominant-baseline="text-before-edge" style="line-height:72px" fill="#8f9498" font-family="'Geometria','Geometria'" font-size="12" font-style="none" font-weight="400" transform="translate(44 39)"><tspan style="font-kerning:normal">F</tspan><tspan style="font-kerning:normal">rom telegram:</tspan></text></g></g><g><g><text dominant-baseline="text-before-edge" style="line-height:12px" fill="#1d1e1e" font-family="'Geometria','Geometria-Bold'" font-size="12" font-style="none" font-weight="700" transform="translate(44 58)"><tspan style="font-kerning:normal">П</tspan><tspan style="font-kerning:normal">родаю, что не продавалось </tspan><tspan style="font-kerning:normal">ранее!!!</tspan></text></g></g><g><path fill="#11beaa" d="M259 39c12.15 0 22 9.85 22 22s-9.85 22-22 22-22-9.85-22-22 9.85-22 22-22z"/></g></g></g></svg>