<svg xmlns="http://www.w3.org/2000/svg" width="241" height="169" viewBox="0 0 241 169"><defs><mask id="9mshb" width="2.02" height="2.03" x="-1.01" y="-1.02"><path fill="#fff" d="M18.9 17.9h203.2v131.2H18.9z"/><path d="M36 20h169c8.284 0 15 6.716 15 15v97c0 8.284-6.716 15-15 15H36c-8.284 0-15-6.716-15-15V35c0-8.284 6.716-15 15-15z"/></mask><filter id="9msha" width="261" height="190" x="-10" y="-11" filterUnits="userSpaceOnUse"><feOffset dy="1" in="SourceGraphic" result="FeOffset1107Out"/><feGaussianBlur in="FeOffset1107Out" result="FeGaussianBlur1108Out" stdDeviation="7.56 7.56"/></filter></defs><g><g><g><g filter="url(#9msha)"><path fill="none" stroke="#000" stroke-opacity=".08" stroke-width="4.2" d="M36 20h169c8.284 0 15 6.716 15 15v97c0 8.284-6.716 15-15 15H36c-8.284 0-15-6.716-15-15V35c0-8.284 6.716-15 15-15z" mask="url(&quot;#9mshb&quot;)"/><path fill-opacity=".08" d="M36 20h169c8.284 0 15 6.716 15 15v97c0 8.284-6.716 15-15 15H36c-8.284 0-15-6.716-15-15V35c0-8.284 6.716-15 15-15z"/></g><path fill="#fff" d="M36 20h169c8.284 0 15 6.716 15 15v97c0 8.284-6.716 15-15 15H36c-8.284 0-15-6.716-15-15V35c0-8.284 6.716-15 15-15z"/></g><g><g><text dominant-baseline="text-before-edge" style="line-height:12px" fill="#1d1e1e" font-family="'Geometria','Geometria-Bold'" font-size="10" font-style="none" font-weight="700" transform="translate(39 88)"><tspan style="font-kerning:normal">“Lorem ipsum dolor sit amet, consectetur adipisicing elit, sed do eiusmod tempor incididunt ut labore et dolore magna aliqua” Ut enim ad minim veniam, quis nostrud exercitation ullamco laboris nisi ut aliquip ex ea commodo consequat. Duis aute irure dolor in reprehenderit in voluptate velit esse cillum dolore eu fugiat nulla pariatur. Excepteur sint occaecat cupidatat non proident, sunt in culpa qui officia deserunt mollit anim id est laborum. Sed ut perspiciatis unde omnis iste natus error sit voluptatem accusantium doloremque laudantium, totam rem aperiam, eaque ipsa quae ab illo inventore veritatis et quasi architecto beatae vitae dicta sunt explicabo. Nemo enim ipsam voluptatem quia voluptas sit aspernatur aut odit aut fugit, sed quia consequuntur magni dolores eos qui ratione voluptatem sequi nesciunt. Neque porro quisquam est, qui dolorem ipsum quia dolor sit amet, consectetur, adipisci velit, sed quia non numquam eius modi tempora incidunt ut labore et dolore magnam aliquam quaerat voluptatem.”</tspan></text></g></g><g><path fill="#11beaa" d="M120 33c12.15 0 22 9.85 22 22s-9.85 22-22 22-22-9.85-22-22 9.85-22 22-22z"/></g></g></g></svg>