<svg xmlns="http://www.w3.org/2000/svg" width="283" height="122" viewBox="0 0 283 122"><defs><mask id="fv2db" width="2.02" height="2.06" x="-1.01" y="-1.03"><path fill="#fff" d="M18.9 24.9h239.2v77.2H18.9z"/><path d="M35.997 27.035h204.128c8.285 0 15 6.716 15 15v42.04c0 8.284-6.715 15-15 15H35.997c-8.285 0-15-6.716-15-15v-42.04c0-8.284 6.715-15 15-15z"/></mask><filter id="fv2da" width="297" height="136" x="-10" y="-4" filterUnits="userSpaceOnUse"><feOffset dy="1" in="SourceGraphic" result="FeOffset1025Out"/><feGaussianBlur in="FeOffset1025Out" result="FeGaussianBlur1026Out" stdDeviation="7.56 7.56"/></filter><mask id="fv2dd" width="2.02" height="2.06" x="-1.01" y="-1.03"><path fill="#fff" d="M24.9 17.9h239.2v77.2H24.9z"/><path d="M42.468 20.563h204.13c8.284 0 15 6.716 15 15v42.04c0 8.284-6.716 15-15 15H42.467c-8.284 0-15-6.716-15-15v-42.04c0-8.284 6.716-15 15-15z"/></mask><filter id="fv2dc" width="297" height="136" x="-4" y="-11" filterUnits="userSpaceOnUse"><feOffset dy="1" in="SourceGraphic" result="FeOffset1041Out"/><feGaussianBlur in="FeOffset1041Out" result="FeGaussianBlur1042Out" stdDeviation="7.56 7.56"/></filter></defs><g><g><g opacity=".33"><g filter="url(#fv2da)"><path fill="none" stroke="#000" stroke-opacity=".08" stroke-width="4.2" d="M35.997 27.035h204.128c8.285 0 15 6.716 15 15v42.04c0 8.284-6.715 15-15 15H35.997c-8.285 0-15-6.716-15-15v-42.04c0-8.284 6.715-15 15-15z" mask="url(&quot;#fv2db&quot;)"/><path fill-opacity=".08" d="M35.997 27.035h204.128c8.285 0 15 6.716 15 15v42.04c0 8.284-6.715 15-15 15H35.997c-8.285 0-15-6.716-15-15v-42.04c0-8.284 6.715-15 15-15z"/></g><path fill="#fff" d="M35.997 27.035h204.128c8.285 0 15 6.716 15 15v42.04c0 8.284-6.715 15-15 15H35.997c-8.285 0-15-6.716-15-15v-42.04c0-8.284 6.715-15 15-15z"/></g><g><g filter="url(#fv2dc)"><path fill="none" stroke="#000" stroke-opacity=".08" stroke-width="4.2" d="M42.468 20.563h204.13c8.284 0 15 6.716 15 15v42.04c0 8.284-6.716 15-15 15H42.467c-8.284 0-15-6.716-15-15v-42.04c0-8.284 6.716-15 15-15z" mask="url(&quot;#fv2dd&quot;)"/><path fill-opacity=".08" d="M42.468 20.563h204.13c8.284 0 15 6.716 15 15v42.04c0 8.284-6.716 15-15 15H42.467c-8.284 0-15-6.716-15-15v-42.04c0-8.284 6.716-15 15-15z"/></g><path fill="#fff" d="M42.468 20.563h204.13c8.284 0 15 6.716 15 15v42.04c0 8.284-6.716 15-15 15H42.467c-8.284 0-15-6.716-15-15v-42.04c0-8.284 6.716-15 15-15z"/></g><g><g><text dominant-baseline="text-before-edge" style="line-height:16px" fill="#1d1e1e" font-family="'Geometria','Geometria'" font-size="19.99" font-style="none" font-weight="400" transform="translate(48 57)"><tspan style="font-kerning:normal">У</tspan><tspan style="font-kerning:normal"> Вас новая заявка.</tspan></text></g></g><g><g><text dominant-baseline="text-before-edge" style="line-height:72px" fill="#8f9498" font-family="'Geometria','Geometria'" font-size="12" font-style="none" font-weight="400" transform="translate(48 35)"><tspan style="font-kerning:normal">M</tspan><tspan style="font-kerning:normal">essage:</tspan></text></g></g></g></g></svg>