<svg xmlns="http://www.w3.org/2000/svg" width="731" height="644" viewBox="0 0 731 644"><g><g><g opacity=".85"><path fill="none" stroke="#6c6b67" stroke-miterlimit="20" d="M357.177 118.51c94.07 0 187.57 53.574 211.59 134.368 28.12 94.589-54.704 181.47-177.866 181.47-123.506 0-224.516-87.147-216.619-181.47 6.708-80.107 87.922-134.368 182.895-134.368z"/></g><g opacity=".85"><path fill="none" stroke="#6c6b67" stroke-miterlimit="20" d="M353.947 88.275c112.451 0 224.764 63.792 254.226 160.782 34.676 114.15-64.98 219.41-213.63 219.41-148.793 0-270.774-105.371-260.486-219.41 8.651-95.901 106.006-160.782 219.89-160.782z"/></g><g opacity=".85"><path fill="none" stroke="#6c6b67" stroke-miterlimit="20" d="M352.41 73.888c123.104 0 246.2 69.155 280.59 175.169 41.524 128-69.319 247.108-235.5 247.108-166.595 0-302.423-119.429-288.27-247.108 11.635-104.971 118.708-175.17 243.18-175.17z"/></g><g opacity=".85"><path fill="none" stroke="#6c6b67" stroke-miterlimit="20" d="M348.206 34.51c151.81 0 305.842 82.764 356.438 214.547 65.228 169.895-77.924 333.44-297.925 333.44-220.154 0-398.058-163.665-369.133-333.44C59.763 118.896 194.261 34.51 348.206 34.51z"/></g></g></g></svg>