<svg xmlns="http://www.w3.org/2000/svg" fill="white" viewBox="0 0 41.79 55.27"><title>Asset 1</title><g id="Layer_2" data-name="Layer 2"><g id="Layer_1-2" data-name="Layer 1"><path d="M16.9,55.27q0-5.62,0-11.27v-.69H18.7a11.64,11.64,0,0,0,.05-1.66L15.09,38,8.82,31.75a2.73,2.73,0,0,0-.35-.33,4.11,4.11,0,0,1,.11-6.72l.2-.16c0-.19-.14-.26-.23-.36L1.07,16.71a3.08,3.08,0,0,1,0-4.7Q5.9,7.26,10.64,2.47c.55-.55,1.11-1.08,1.65-1.64A4.59,4.59,0,0,1,13.77,0H15a5,5,0,0,1,2.19,1.49c1,1.07,2.11,2.12,3.16,3.18.14.13.25.3.45.36a4,4,0,0,1,4.75-1A4.07,4.07,0,0,1,28,8.3a4.21,4.21,0,0,1,3.4,1.21,4.16,4.16,0,0,1,1.2,3.4A4.25,4.25,0,0,1,36,14.12a4.33,4.33,0,0,1,1.2,3.37,4.2,4.2,0,0,1,3.22,7.29,3.35,3.35,0,0,1,1.38,2.66A3.51,3.51,0,0,1,40.42,30c2.18,3.88,1.76,7.36-1.36,10.5v2.77h1.8v12ZM11,24H20a4.06,4.06,0,0,1,2.57.81,4.16,4.16,0,0,1,1.49,4.58,4.23,4.23,0,0,1-3.9,2.9,3.23,3.23,0,0,0-.82,0,.35.35,0,0,0,.15.26l6.91,6.91a1.23,1.23,0,0,0,2,0l11-11a1.25,1.25,0,0,0,0-2q-4.51-4.53-9-9L20.81,7.78l-2-2-13,13ZM39.08,31.5c-.24,0-.32.18-.43.29-2.95,3-5.94,5.87-8.84,8.87a3.23,3.23,0,0,1-4.8,0c-1.94-2-4-4-5.94-6-.81-.82-1.6-1.65-2.34-2.41H12.17l8.44,8.61v2.35H37.18V39.62a6.1,6.1,0,0,0,2.59-3.7A5.72,5.72,0,0,0,39.08,31.5ZM17.35,4.26c-.61-.6-1.25-1.2-1.87-1.82a1.3,1.3,0,0,0-2.17,0L9.87,5.85,2.43,13.29c-.8.81-.79,1.4,0,2.21.53.51,1,1,1.57,1.56.1.1.17.23.29.23ZM31.58,53.4a3.52,3.52,0,0,0,.06-1.07,16.92,16.92,0,0,0-.1-3,5.07,5.07,0,0,0-5-4.17c-2.47,0-4.93,0-7.39,0-.12,0-.25,0-.38.09V53.4Zm-16.09-23H16c1.39,0,2.77,0,4.16,0a2.29,2.29,0,0,0,2.3-2.3,2.24,2.24,0,0,0-2.19-2.29c-3.11,0-6.23,0-9.34,0a2.21,2.21,0,0,0-1.52.6,2.3,2.3,0,0,0,1.52,4C12.43,30.42,14,30.4,15.49,30.4ZM39,53.42V45.18H31.3l.29.33A6.78,6.78,0,0,1,33.47,50c0,.93,0,1.86,0,2.8,0,.19-.06.4.11.58ZM22.1,6.32l3.21,3.24a2.15,2.15,0,0,0,.74-2.26,2.28,2.28,0,0,0-3.95-1Zm13.78,14,2.86,2.81a.88.88,0,0,0,.34.26,2.12,2.12,0,0,0,.8-2.24A2.37,2.37,0,0,0,38,19.37,2.1,2.1,0,0,0,35.88,20.3Zm-5.94-6.16a2.13,2.13,0,0,0,.71-2.25,2.29,2.29,0,0,0-3.94-1Zm4.59,4.65a2.26,2.26,0,0,0,.69-2.4,2.28,2.28,0,0,0-3.93-.84Z"/><path d="M34.4,30.42a3.68,3.68,0,1,1-3.64-3.7A3.71,3.71,0,0,1,34.4,30.42Zm-3.67-1.85a1.83,1.83,0,0,0-1.84,1.8,1.84,1.84,0,1,0,3.67.06A1.83,1.83,0,0,0,30.73,28.57Z"/><path d="M11.37,8.21a1,1,0,0,1-.32.78c-.57.57-1.14,1.15-1.72,1.71A.91.91,0,1,1,8.05,9.41c.58-.6,1.16-1.18,1.75-1.75a.84.84,0,0,1,1-.22A.9.9,0,0,1,11.37,8.21Z"/><path d="M29.79,49.3a3.18,3.18,0,0,1-3.23,3.2,3.22,3.22,0,0,1,0-6.43A3.19,3.19,0,0,1,29.79,49.3Zm-3.22-1.38a1.37,1.37,0,1,0,0,2.73,1.37,1.37,0,0,0,0-2.73Z"/></g></g></svg>