<svg xmlns="http://www.w3.org/2000/svg" viewBox="0 0 91.43 91.23"><defs><style>.cls-1{fill:none;stroke:#901920;stroke-linecap:round;stroke-linejoin:round;stroke-width:2px;}</style></defs><title>Asset 2</title><g id="Layer_2" data-name="Layer 2"><g id="Layer_2-2" data-name="Layer 2"><path class="cls-1" d="M74.67,30.62A39.47,39.47,0,1,1,54.31,13.56"/><circle class="cls-1" cx="40.56" cy="50.67" r="31.37"/><circle class="cls-1" cx="40.56" cy="50.67" r="23.17"/><path class="cls-1" d="M40.56,35.69a15,15,0,1,1-15,15c0-.34,0-.68,0-1"/><path class="cls-1" d="M27.83,42.77a15.17,15.17,0,0,1,5.26-5.09"/><circle class="cls-1" cx="40.56" cy="50.67" r="6.78"/><line class="cls-1" x1="40.56" y1="50.67" x2="76.16" y2="15.07"/><polygon class="cls-1" points="61.68 17 62.74 28.49 74.17 29.8 90.43 15 74.14 17.09 73.59 1 61.68 17"/></g></g></svg>