<svg xmlns="http://www.w3.org/2000/svg" viewBox="0 0 85.54 90.57"><defs><style>.cls-1,.cls-2{fill:none;stroke:#901920;stroke-width:2px;}.cls-1{stroke-miterlimit:10;}.cls-2{stroke-linecap:round;stroke-linejoin:round;}</style></defs><title>Asset 3</title><g id="Layer_2" data-name="Layer 2"><g id="Layer_2-2" data-name="Layer 2"><path class="cls-1" d="M51.06,23.47q0-6.63,0-13.26V9.06H64.18a20.19,20.19,0,0,0,6.07,14.22,20.13,20.13,0,0,0,14.29,5.9v13a33.46,33.46,0,0,1-20.33-6.89V36.4c0,9.74.26,19.48,0,29.2A24.77,24.77,0,0,1,40.72,89.44a5.16,5.16,0,0,0-.77.13H38.38A31.49,31.49,0,0,1,30,87.85a24.84,24.84,0,0,1,4.42-47.74,24.67,24.67,0,0,1,8.4-.12V53.22a22.21,22.21,0,0,0-3.5-.51,11.89,11.89,0,1,0,.31,23.77C46.15,76.22,51,70.94,51,64.12q0-13.26,0-26.54"/><path class="cls-2" d="M28.51,32.75,8,27.88a9.15,9.15,0,1,1,4.23-17.81l2.66.63L15.57,8a9.15,9.15,0,0,1,17.81,4.23Z"/></g></g></svg>