<svg xmlns="http://www.w3.org/2000/svg" viewBox="0 0 99.68 86.28"><defs><style>.cls-1{fill:none;stroke:#901920;stroke-linecap:round;stroke-linejoin:round;stroke-width:2px;}</style></defs><title>Asset 4</title><g id="Layer_2" data-name="Layer 2"><g id="Layer_2-2" data-name="Layer 2"><path class="cls-1" d="M87.35,1A11.33,11.33,0,0,1,98.68,12.33V61.25A11.34,11.34,0,0,1,87.35,72.59h-75A11.34,11.34,0,0,1,1,61.25V12.33A11.33,11.33,0,0,1,12.33,1H66.24"/><line class="cls-1" x1="1" y1="51.78" x2="98.68" y2="51.78"/><circle cx="49.84" cy="61.65" r="3.44"/><line class="cls-1" x1="49.84" y1="72.59" x2="49.84" y2="85.28"/><line class="cls-1" x1="33.44" y1="85.28" x2="66.24" y2="85.28"/><circle class="cls-1" cx="21.81" cy="21.45" r="9.52"/><rect class="cls-1" x="37.99" y="23.22" width="18.44" height="18.44"/><polygon class="cls-1" points="75.71 14.94 63.09 36.79 88.33 36.79 75.71 14.94"/></g></g></svg>