<svg xmlns="http://www.w3.org/2000/svg" viewBox="0 0 78.06 90.72"><defs><style>.cls-1{fill:none;stroke:#901920;stroke-linecap:round;stroke-linejoin:round;stroke-width:2px;}</style></defs><title>Asset 5</title><g id="Layer_2" data-name="Layer 2"><g id="Layer_2-2" data-name="Layer 2"><path class="cls-1" d="M60.58,24.1h7.14a9.34,9.34,0,0,1,9.34,9.33V70.5a9.34,9.34,0,0,1-9.34,9.34H10.34A9.34,9.34,0,0,1,1,70.5V33.43a9.34,9.34,0,0,1,9.34-9.33"/><line class="cls-1" x1="1" y1="63.64" x2="77.06" y2="63.64"/><circle cx="39.03" cy="71.33" r="2.68"/><circle cx="23.82" cy="6.73" r="1.89"/><circle cx="29.59" cy="6.73" r="1.89"/><circle cx="35.35" cy="6.73" r="1.89"/><line class="cls-1" x1="39.03" y1="79.84" x2="39.03" y2="89.72"/><line class="cls-1" x1="26.26" y1="89.72" x2="51.8" y2="89.72"/><rect class="cls-1" x="17.47" y="1" width="43.11" height="53.34" rx="3.75" ry="3.75"/><line class="cls-1" x1="17.47" y1="13.36" x2="60.58" y2="13.36"/><line class="cls-1" x1="25.71" y1="39.3" x2="53.51" y2="39.3"/><line class="cls-1" x1="22.62" y1="44.25" x2="50.42" y2="44.25"/><line class="cls-1" x1="28.29" y1="49.19" x2="56.09" y2="49.19"/><polyline class="cls-1" points="32.4 21 28.59 25.22 32.91 28.93"/><polyline class="cls-1" points="44.95 32.48 48.76 28.26 44.44 24.55"/><line class="cls-1" x1="41.74" y1="17.84" x2="35.08" y2="34.82"/></g></g></svg>