<svg xmlns="http://www.w3.org/2000/svg" viewBox="0 0 91.53 88.86"><defs><style>.cls-1{fill:none;stroke:#901920;stroke-linecap:round;stroke-linejoin:round;stroke-width:2px;}</style></defs><title>Asset 6</title><g id="Layer_2" data-name="Layer 2"><g id="Layer_2-2" data-name="Layer 2"><polygon class="cls-1" points="1 87.86 1 80 15 69.96 25.05 82.13 21.39 87.86 1 87.86"/><path class="cls-1" d="M16.19,70.86a41.45,41.45,0,0,1,7.44-10.63,5.64,5.64,0,0,1,2.47-1.75c1.92-.54,3.84.85,5.13,2.37s2.38,3.34,4.19,4.18a4.61,4.61,0,0,1-3.76,2,4.37,4.37,0,0,1-3.45-2.33"/><polyline class="cls-1" points="28.02 58.52 35.42 55.65 23.52 39.52 46.66 10.91 70.7 46.99 35.42 55.65"/><polyline class="cls-1" points="19.26 44.09 14.7 49.87 23.63 60.23"/><polyline class="cls-1" points="17.02 52.56 14.08 56.26 18.3 61.06 22.74 59.2"/><line class="cls-1" x1="59.22" y1="13.02" x2="66" y2="1"/><line class="cls-1" x1="70.7" y1="20.72" x2="84.16" y2="13.02"/><line class="cls-1" x1="76.1" y1="34.37" x2="90.53" y2="31.98"/><line class="cls-1" x1="37.78" y1="58.74" x2="35.42" y2="55.65"/><polyline class="cls-1" points="31.66 67.05 45.07 85.15 53.58 79.43 51.54 76.23"/><path class="cls-1" d="M34.41,62.94,39.77,57a2.63,2.63,0,0,1,3.71-.19h0a2.63,2.63,0,0,1,.18,3.71L38.3,66.46a2.63,2.63,0,0,1-3.71.19"/><rect class="cls-1" x="43.01" y="60.78" width="5.25" height="13.24" rx="2.63" ry="2.63" transform="translate(57.01 -13.2) rotate(42.14)"/><rect class="cls-1" x="47.34" y="67.5" width="5.25" height="13.24" rx="2.63" ry="2.63" transform="translate(85.14 -8.06) rotate(57.16)"/><path class="cls-1" d="M41.47,80.47Q33.28,81.4,25,81.74"/></g></g></svg>